<?xml version="1.0" standalone="no"?>
<!DOCTYPE svg PUBLIC "-//W3C//DTD SVG 20010904//EN"
 "http://www.w3.org/TR/2001/REC-SVG-20010904/DTD/svg10.dtd">
<svg version="1.0" xmlns="http://www.w3.org/2000/svg"
 width="197.000000pt" height="186.000000pt" viewBox="0 0 197.000000 186.000000"
 preserveAspectRatio="xMidYMid meet">

<g transform="translate(0.000000,186.000000) scale(0.100000,-0.100000)"
fill="#000000" stroke="none">
<path d="M0 930 l0 -930 985 0 985 0 0 930 0 930 -475 0 c-373 0 -474 -3 -469
-13 5 -9 4 -9 -7 1 -10 9 -127 12 -516 12 l-503 0 0 -930z m990 885 c-13 -14
-26 -23 -29 -20 -6 6 42 54 48 49 3 -2 -6 -15 -19 -29z m-86 -79 c-10 -8 -21
-12 -24 -10 -5 6 21 24 34 24 6 0 1 -6 -10 -14z m201 4 c3 -6 -1 -7 -9 -4 -18
7 -21 14 -7 14 6 0 13 -4 16 -10z m-267 -131 c-3 -8 -7 -3 -11 10 -4 17 -3 21
5 13 5 -5 8 -16 6 -23z m197 -27 c-3 -3 -11 0 -18 7 -9 10 -8 11 6 5 10 -3 15
-9 12 -12z m261 -11 c-4 -5 -1 -12 4 -14 6 -3 5 -4 -2 -3 -7 2 -22 -1 -33 -6
-16 -7 -16 -5 4 11 25 22 36 27 27 12z m64 -1 c0 -5 -5 -10 -11 -10 -5 0 -7 5
-4 10 3 6 8 10 11 10 2 0 4 -4 4 -10z m-510 -4 c0 -3 -4 -8 -10 -11 -5 -3 -10
-1 -10 4 0 6 5 11 10 11 6 0 10 -2 10 -4z m180 -6 c0 -5 -2 -10 -4 -10 -3 0
-8 5 -11 10 -3 6 -1 10 4 10 6 0 11 -4 11 -10z m-83 -32 c-3 -8 -6 -5 -6 6 -1
11 2 17 5 13 3 -3 4 -12 1 -19z m63 2 c0 -5 -5 -10 -11 -10 -5 0 -7 5 -4 10 3
6 8 10 11 10 2 0 4 -4 4 -10z m34 -15 c-4 -8 -8 -15 -10 -15 -2 0 -4 7 -4 15
0 8 4 15 10 15 5 0 7 -7 4 -15z m176 12 c0 -2 -10 -12 -22 -23 l-23 -19 19 23
c18 21 26 27 26 19z m-223 -49 c-3 -7 -5 -2 -5 12 0 14 2 19 5 13 2 -7 2 -19
0 -25z m-3 -34 c3 -8 2 -12 -4 -9 -6 3 -10 10 -10 16 0 14 7 11 14 -7z m136
-8 c0 -2 -8 -10 -17 -17 -16 -13 -17 -12 -4 4 13 16 21 21 21 13z m448 -31
c-3 -3 -9 2 -12 12 -6 14 -5 15 5 6 7 -7 10 -15 7 -18z m-291 -7 c-3 -8 -6 -5
-6 6 -1 11 2 17 5 13 3 -3 4 -12 1 -19z m223 19 c0 -2 -10 -12 -22 -23 l-23
-19 19 23 c18 21 26 27 26 19z m-423 -32 c0 -8 -4 -12 -9 -9 -5 3 -6 10 -3 15
9 13 12 11 12 -6z m-78 -67 c0 -5 10 -17 21 -28 11 -11 20 -29 20 -40 0 -11 4
-20 10 -20 5 0 7 -7 4 -15 -6 -15 -25 -21 -23 -7 1 4 0 10 -1 15 -1 4 -3 10
-4 15 -1 4 -9 21 -19 38 -9 17 -13 34 -10 38 12 12 -13 6 -27 -6 -12 -11 -12
-10 -1 5 7 9 10 17 5 18 -5 0 -17 2 -27 4 -12 2 -17 -1 -13 -10 3 -9 0 -12 -9
-8 -8 3 -12 9 -9 14 3 5 0 9 -5 9 -6 0 -11 -5 -11 -11 0 -5 -4 -7 -10 -4 -6 3
-7 -1 -4 -9 7 -17 -19 -49 -31 -38 -4 4 0 -8 9 -26 10 -19 15 -40 12 -48 -3
-8 -2 -13 3 -10 11 7 36 -22 27 -31 -3 -3 1 -17 10 -31 9 -13 11 -21 5 -18 -7
5 -11 -4 -11 -23 0 -24 -3 -29 -17 -25 -17 5 -17 5 0 -6 9 -6 14 -16 11 -22
-5 -8 -1 -9 10 -5 10 4 15 3 11 -3 -3 -6 2 -10 12 -11 15 0 14 -2 -4 -11 -20
-10 -21 -12 -7 -22 13 -10 13 -14 -5 -33 -19 -20 -19 -21 -2 -26 10 -2 21 -15
24 -28 5 -22 5 -22 -7 -6 -7 9 -17 17 -22 17 -4 0 -3 -5 4 -12 15 -15 16 -42
1 -32 -8 5 -8 1 0 -13 7 -14 7 -24 -2 -33 -10 -12 -9 -12 5 -1 10 7 15 17 12
22 -3 5 -1 9 5 9 5 0 13 -4 16 -10 3 -5 2 -10 -3 -10 -5 0 -14 -16 -19 -35 -9
-28 -8 -38 4 -50 13 -13 13 -15 -1 -15 -9 0 -16 -2 -16 -4 0 -2 -3 -12 -7 -22
-4 -12 -3 -15 5 -10 8 5 11 -1 10 -19 -2 -15 -7 -24 -14 -21 -7 3 -14 -9 -18
-27 -5 -24 -2 -35 11 -44 13 -10 14 -13 2 -13 -10 -1 -8 -5 6 -17 12 -9 14
-14 5 -11 -8 2 -23 -4 -32 -14 -13 -13 -14 -18 -5 -18 8 0 14 -6 14 -14 0 -8
-3 -14 -6 -13 -8 3 -9 -13 -3 -36 3 -11 10 -16 19 -13 8 4 11 1 8 -5 -4 -6
-13 -8 -20 -5 -7 2 -15 -1 -18 -8 -3 -7 4 -12 17 -13 11 0 30 -4 40 -8 15 -6
17 -5 11 5 -5 9 -4 11 4 6 6 -4 9 -12 6 -17 -9 -13 7 -11 27 5 10 7 15 16 11
20 -4 4 0 4 10 0 10 -3 17 -1 17 5 0 6 -6 11 -12 12 -10 0 -10 2 0 6 6 2 10 9
6 14 -3 5 -1 9 4 9 5 0 12 9 15 20 3 11 1 20 -5 20 -5 0 -6 6 -1 13 4 6 6 20
5 30 -2 10 3 17 12 17 21 0 20 9 -1 33 -10 11 -13 17 -7 14 7 -4 14 0 18 8 3
8 0 15 -7 15 -8 0 -8 3 2 9 7 5 14 24 15 42 1 19 6 40 10 48 5 7 5 16 0 20
-14 10 -15 30 -3 53 6 11 7 18 1 14 -5 -3 -12 4 -15 16 -4 13 -1 26 6 30 7 4
8 8 4 8 -5 0 -5 6 -1 12 7 11 8 32 5 69 -1 5 -7 7 -13 3 -10 -6 -10 -4 -2 7 6
8 10 25 8 37 -3 15 0 22 8 20 6 -2 13 -20 14 -39 6 -59 3 -253 -3 -278 -8 -32
11 -41 82 -36 47 3 52 2 25 -4 -19 -5 -27 -9 -17 -10 9 0 17 -6 17 -12 0 -5
-4 -8 -9 -5 -5 3 -24 8 -43 11 -47 8 -59 -8 -80 -113 -21 -103 -36 -144 -52
-135 -6 4 -5 -1 3 -10 7 -9 12 -17 10 -18 -2 0 -17 -2 -33 -3 -16 -1 -31 -7
-34 -14 -3 -9 -9 -9 -24 -1 -11 6 -22 8 -25 5 -3 -3 -18 10 -33 29 -15 19 -31
31 -35 27 -4 -4 -2 3 4 15 11 22 -1 34 -14 13 -3 -5 -11 -10 -18 -10 -6 0 -2
6 8 14 11 8 16 19 12 30 -4 10 -3 15 3 11 5 -3 13 9 18 27 5 20 5 34 -1 37 -5
2 -4 7 3 11 18 11 31 92 17 109 -9 12 -9 13 1 7 21 -13 14 36 -10 63 -22 24
-22 25 -1 8 11 -10 23 -15 26 -10 8 13 4 82 -5 77 -4 -3 -8 -1 -8 5 0 5 5 13
10 16 11 7 13 71 4 128 -5 28 -11 37 -28 38 -20 2 -20 2 2 6 12 2 22 6 22 8 0
4 -17 92 -26 134 -5 23 -7 23 -57 -25 -52 -50 -37 -26 19 30 24 24 29 36 23
51 -23 58 -3 114 50 142 36 19 36 19 72 -2 20 -11 37 -23 38 -27z m443 0 c-6
-6 -7 0 -4 19 5 21 7 23 10 9 2 -10 0 -22 -6 -28z m-93 -2 c-3 -3 -11 5 -18
17 -13 21 -12 21 5 5 10 -10 16 -20 13 -22z m-924 -16 c3 -6 -1 -7 -9 -4 -18
7 -21 14 -7 14 6 0 13 -4 16 -10z m222 -22 c-3 -7 -5 -2 -5 12 0 14 2 19 5 13
2 -7 2 -19 0 -25z m450 10 c-3 -8 -6 -5 -6 6 -1 11 2 17 5 13 3 -3 4 -12 1
-19z m386 -30 c4 -10 5 -18 2 -18 -4 0 -35 60 -35 69 0 8 26 -32 33 -51z
m-190 35 c-7 -2 -21 -2 -30 0 -10 3 -4 5 12 5 17 0 24 -2 18 -5z m-829 -18
c-4 -8 -10 -12 -15 -9 -14 8 -10 24 6 24 9 0 12 -6 9 -15z m673 9 c-3 -3 -12
-4 -19 -1 -8 3 -5 6 6 6 11 1 17 -2 13 -5z m-60 -10 c-3 -3 -12 -4 -19 -1 -8
3 -5 6 6 6 11 1 17 -2 13 -5z m152 -6 c0 -7 -4 -22 -9 -33 -7 -16 -8 -14 -7
12 1 18 5 33 10 33 4 0 7 -6 6 -12z m-119 -18 c0 -5 -2 -10 -4 -10 -3 0 -8 5
-11 10 -3 6 -1 10 4 10 6 0 11 -4 11 -10z m-210 -20 c0 -5 -2 -10 -4 -10 -3 0
-8 5 -11 10 -3 6 -1 10 4 10 6 0 11 -4 11 -10z m-440 -4 c0 -2 -8 -10 -17 -17
-16 -13 -17 -12 -4 4 13 16 21 21 21 13z m80 -21 c13 -14 21 -25 18 -25 -2 0
-15 11 -28 25 -13 14 -21 25 -18 25 2 0 15 -11 28 -25z m670 -10 c8 0 33 -2
55 -6 25 -5 46 -3 55 4 8 7 6 1 -5 -12 -11 -13 -19 -33 -18 -45 3 -20 2 -20
-6 -1 -4 11 -6 26 -3 34 4 10 -6 12 -47 10 -28 -2 -51 0 -51 4 0 5 -6 5 -12 1
-7 -4 -10 -4 -6 1 11 11 -12 36 -25 28 -6 -4 -7 -1 -2 6 5 9 12 8 29 -6 11
-11 28 -19 36 -18z m77 29 c-3 -3 -12 -4 -19 -1 -8 3 -5 6 6 6 11 1 17 -2 13
-5z m70 -10 c-3 -3 -12 -4 -19 -1 -8 3 -5 6 6 6 11 1 17 -2 13 -5z m-942 -34
c-3 -5 -1 -10 6 -10 7 0 10 -2 7 -5 -3 -3 -13 -2 -22 1 -14 5 -15 9 -4 15 17
11 20 11 13 -1z m650 -46 c4 -31 9 -67 11 -80 2 -13 0 -24 -6 -24 -5 0 -10 6
-10 13 0 9 -2 9 -9 -1 -5 -8 -7 4 -6 32 0 27 -3 42 -9 39 -6 -4 -6 1 -1 13 5
10 9 29 9 42 2 42 14 22 21 -34z m115 12 c11 18 11 18 6 1 -3 -10 -6 -25 -6
-33 0 -9 -4 -13 -10 -9 -5 3 -21 -12 -36 -35 -15 -22 -29 -40 -31 -40 -8 0 32
65 46 76 12 9 11 16 -8 45 l-23 34 25 -29 c23 -27 25 -27 37 -10z m245 16 c-3
-3 0 -11 6 -18 7 -9 6 -14 -3 -20 -7 -4 -10 -4 -6 1 11 11 -12 36 -25 28 -5
-3 -7 -2 -4 4 3 5 13 10 22 10 8 0 13 -3 10 -5z m-18 -49 c35 -35 47 -88 17
-76 -11 4 -12 8 -4 13 20 12 2 46 -40 75 -22 15 -40 29 -40 31 0 10 39 -14 67
-43z m-787 5 c0 -3 8 -9 18 -11 14 -4 14 -5 1 -6 -9 0 -22 6 -29 14 -7 8 -19
15 -27 15 -8 0 -11 4 -8 10 6 10 45 -9 45 -22z m50 -3 c0 -5 -5 -3 -10 5 -5 8
-10 20 -10 25 0 6 5 3 10 -5 5 -8 10 -19 10 -25z m-233 -7 c-3 -7 -5 -2 -5 12
0 14 2 19 5 13 2 -7 2 -19 0 -25z m900 26 c-3 -3 -12 -4 -19 -1 -8 3 -5 6 6 6
11 1 17 -2 13 -5z m138 -23 c-6 -5 -25 10 -25 20 0 5 6 4 14 -3 8 -7 12 -15
11 -17z m-252 12 c-7 -2 -19 -2 -25 0 -7 3 -2 5 12 5 14 0 19 -2 13 -5z m-538
-33 c3 -5 11 -10 16 -10 6 0 8 4 5 8 -3 5 1 9 7 9 7 0 14 -8 14 -17 1 -13 -7
-16 -40 -14 -57 2 -59 3 -52 14 5 8 11 7 21 -1 8 -6 17 -9 21 -5 3 3 1 6 -5 6
-7 0 -12 5 -12 10 0 6 4 10 9 10 6 0 13 -4 16 -10z m62 -42 c-3 -8 -6 -5 -6 6
-1 11 2 17 5 13 3 -3 4 -12 1 -19z m-36 -5 c13 -16 12 -17 -3 -4 -10 7 -18 15
-18 17 0 8 8 3 21 -13z m89 5 c0 -11 -12 -10 -30 2 -12 7 -10 9 8 7 12 0 22
-5 22 -9z m457 -43 c0 -8 -4 -12 -9 -9 -5 3 -6 9 -3 13 2 5 -4 16 -15 26 -21
19 -28 9 -10 -13 5 -7 3 -6 -6 2 -9 8 -13 19 -9 26 9 14 52 -23 52 -45z m173
-5 c0 -11 -4 -20 -9 -20 -5 0 -7 9 -4 20 3 11 7 20 9 20 2 0 4 -9 4 -20z
m-960 6 c0 -3 -4 -8 -10 -11 -5 -3 -10 -1 -10 4 0 6 5 11 10 11 6 0 10 -2 10
-4z m855 -33 c1 -10 7 -17 11 -17 5 1 18 -7 29 -18 l20 -21 -22 12 c-18 9 -23
9 -24 -1 0 -9 -2 -8 -6 2 -3 8 -15 26 -27 39 -11 13 -15 21 -8 17 7 -4 12 -2
12 5 0 18 11 4 15 -18z m-525 -13 c8 -5 11 -10 5 -10 -5 0 -21 10 -35 21 -24
20 -5 13 30 -11z m-333 -22 c-3 -8 -6 -5 -6 6 -1 11 2 17 5 13 3 -3 4 -12 1
-19z m31 -34 c6 3 13 2 16 -2 3 -5 -4 -9 -16 -8 -12 0 -23 8 -25 16 -4 12 -3
13 5 1 5 -7 14 -11 20 -7z m566 0 c3 -8 2 -12 -4 -9 -6 3 -10 10 -10 16 0 14
7 11 14 -7z m-239 -26 c5 -4 0 -6 -12 -6 -13 1 -19 7 -16 15 3 8 8 10 12 6 3
-4 10 -11 16 -15z m492 -40 c-13 -18 -22 -40 -20 -48 4 -13 3 -13 -6 0 -12 18
-15 43 -3 36 4 -2 16 8 27 24 11 16 21 27 23 25 2 -2 -7 -19 -21 -37z m-586
-11 c-10 -9 -11 -8 -5 6 3 10 9 15 12 12 3 -3 0 -11 -7 -18z m246 1 c-3 -8 -6
-5 -6 6 -1 11 2 17 5 13 3 -3 4 -12 1 -19z m-170 -26 c11 9 12 7 7 -7 -5 -11
-4 -16 3 -12 5 3 10 0 10 -8 0 -8 -3 -12 -6 -10 -4 2 -15 -3 -26 -11 -13 -10
-15 -14 -4 -14 12 0 12 -2 -1 -9 -24 -16 -35 1 -12 20 24 19 30 35 10 23 -7
-4 -10 -4 -6 1 4 4 2 15 -4 24 -10 13 -10 14 2 4 10 -9 17 -10 27 -1z m53 -17
c-7 -9 -15 -13 -18 -10 -3 2 1 11 8 20 7 9 15 13 18 10 3 -2 -1 -11 -8 -20z
m-146 0 c-4 -8 -11 -15 -16 -15 -6 0 -5 6 2 15 7 8 14 15 16 15 2 0 1 -7 -2
-15z m466 -5 c-34 -11 -60 -11 -35 0 11 5 29 8 40 8 16 0 15 -2 -5 -8z m-560
-40 c0 -5 -4 -10 -10 -10 -5 0 -10 5 -10 10 0 6 5 10 10 10 6 0 10 -4 10 -10z
m686 -32 l19 -23 -21 18 c-21 18 -22 17 -42 -7 -20 -26 -40 -36 -25 -13 12 19
10 31 -7 39 -9 4 0 7 21 7 25 1 41 -6 55 -21z m-436 5 c0 -5 -12 -9 -27 -10
-19 -1 -22 1 -12 8 17 11 39 12 39 2z m-291 -20 c-1 -5 -1 -18 0 -30 1 -18 6
-21 29 -17 22 3 24 2 10 -6 -10 -6 -18 -16 -18 -21 0 -6 5 -7 12 -3 7 4 8 3 4
-4 -4 -7 -15 -12 -23 -12 -14 0 -13 -4 5 -20 12 -12 22 -24 22 -27 0 -4 -11 4
-24 16 -16 15 -29 20 -38 15 -10 -6 -10 -4 1 9 8 10 11 20 8 24 -10 9 -38 -18
-30 -30 3 -6 1 -7 -6 -3 -8 5 -4 16 14 38 27 32 33 58 13 58 -9 0 -8 4 2 10
18 12 20 12 19 3z m137 -2 c11 9 14 9 14 -1 0 -7 7 -10 15 -6 8 3 15 1 15 -5
0 -6 -8 -9 -17 -8 -32 3 -44 -1 -38 -11 3 -5 16 -10 28 -10 21 -1 21 -1 -3
-15 -28 -15 -55 -2 -45 23 3 8 -3 21 -12 29 -16 13 -16 13 5 3 18 -9 27 -8 38
1z m120 -12 c3 -5 -6 -5 -19 0 -14 6 -28 7 -33 3 -4 -4 -4 -2 -1 5 7 12 44 7
53 -8z m111 -21 c-3 -8 -6 -5 -6 6 -1 11 2 17 5 13 3 -3 4 -12 1 -19z m-154
-15 c-7 -2 -19 -2 -25 0 -7 3 -2 5 12 5 14 0 19 -2 13 -5z m-143 -13 c0 -5 -5
-10 -11 -10 -5 0 -7 5 -4 10 3 6 8 10 11 10 2 0 4 -4 4 -10z m690 -8 c0 -5
-12 -14 -27 -21 l-28 -13 20 21 c21 21 35 26 35 13z m-410 -18 c0 -8 -4 -12
-10 -9 -5 3 -10 10 -10 16 0 5 5 9 10 9 6 0 10 -7 10 -16z m370 -53 c0 -5 -8
-18 -17 -30 -13 -15 -25 -19 -41 -15 -17 5 -20 9 -11 15 8 5 17 3 21 -4 5 -8
11 -6 22 8 8 11 12 23 10 27 -3 5 0 8 5 8 6 0 11 -4 11 -9z m-545 -41 c-9 -14
19 -12 34 3 11 10 11 8 0 -10 -10 -17 -17 -19 -31 -12 -16 9 -17 29 -2 29 3 0
2 -4 -1 -10z m555 -5 c-7 -8 -17 -15 -22 -15 -11 0 14 29 26 30 5 0 3 -7 -4
-15z m55 5 c-3 -5 1 -10 9 -10 9 0 16 -4 16 -10 0 -13 -3 -13 -35 4 -23 12
-24 15 -8 19 10 3 19 5 21 6 2 0 0 -3 -3 -9z m-124 -43 c-10 -9 -11 -8 -5 6 3
10 9 15 12 12 3 -3 0 -11 -7 -18z m236 -9 c-3 -8 -6 -5 -6 6 -1 11 2 17 5 13
3 -3 4 -12 1 -19z m-53 -17 c-2 -3 -12 3 -22 13 -16 17 -16 18 5 5 12 -7 20
-15 17 -18z m-734 -5 c0 -2 -8 -10 -17 -17 -16 -13 -17 -12 -4 4 13 16 21 21
21 13z m57 -48 c-3 -8 -6 -5 -6 6 -1 11 2 17 5 13 3 -3 4 -12 1 -19z m437 -67
c-10 -17 -22 -31 -26 -31 -4 0 3 15 15 34 27 41 36 39 11 -3z m-267 -3 c2 -18
0 -20 -7 -8 -12 18 -13 30 -2 30 4 0 9 -10 9 -22z m-147 8 c0 -3 -4 -8 -10
-11 -5 -3 -10 -1 -10 4 0 6 5 11 10 11 6 0 10 -2 10 -4z m-28 -68 c-7 -7 -12
-8 -12 -2 0 14 12 26 19 19 2 -3 -1 -11 -7 -17z m208 9 c0 -2 -16 -18 -35 -37
-19 -19 -35 -31 -35 -27 0 3 15 20 33 36 31 30 37 34 37 28z m155 -55 c-3 -3
1 -12 7 -20 15 -17 20 -44 7 -36 -5 3 -7 9 -4 14 3 5 1 11 -4 15 -5 3 -17 20
-25 37 -16 31 -16 31 4 13 11 -10 18 -20 15 -23z m-28 -28 c-3 -3 -12 -4 -19
-1 -8 3 -5 6 6 6 11 1 17 -2 13 -5z m-380 -36 c-3 -8 -6 -5 -6 6 -1 11 2 17 5
13 3 -3 4 -12 1 -19z m120 -14 c-3 -3 -12 -4 -19 -1 -8 3 -5 6 6 6 11 1 17 -2
13 -5z"/>
<path d="M885 1173 c6 -4 10 -14 11 -20 3 -39 5 -44 14 -38 7 4 6 14 -2 28 -6
12 -10 24 -9 27 1 2 -3 6 -11 8 -8 2 -9 0 -3 -5z"/>
<path d="M895 1090 c3 -5 8 -10 11 -10 2 0 4 5 4 10 0 6 -5 10 -11 10 -5 0 -7
-4 -4 -10z"/>
<path d="M591 631 c-8 -5 -9 -11 -3 -15 5 -3 12 1 16 9 6 17 6 18 -13 6z"/>
</g>
</svg>
