<?xml version="1.0" standalone="no"?>
<!DOCTYPE svg PUBLIC "-//W3C//DTD SVG 20010904//EN"
 "http://www.w3.org/TR/2001/REC-SVG-20010904/DTD/svg10.dtd">
<svg version="1.0" xmlns="http://www.w3.org/2000/svg"
 width="400.000000pt" height="400.000000pt" viewBox="0 0 400.000000 400.000000"
 preserveAspectRatio="xMidYMid meet">

<g transform="translate(0.000000,400.000000) scale(0.100000,-0.100000)"
fill="#000000" stroke="none">
<path d="M1090 3979 c-14 -11 -40 -33 -58 -47 -141 -114 -180 -149 -218 -196
-21 -27 -48 -59 -59 -72 -12 -12 -32 -37 -45 -55 -14 -17 -37 -48 -52 -67 -16
-19 -28 -38 -28 -41 0 -3 -10 -17 -23 -31 -31 -34 -87 -127 -87 -145 0 -7 -4
-17 -10 -20 -6 -3 -10 -18 -10 -32 0 -36 -22 -104 -40 -126 -8 -11 -25 -23
-37 -28 -24 -9 -31 -33 -13 -44 6 -4 7 -12 3 -18 -19 -30 -14 -57 12 -67 23
-9 35 -22 18 -19 -21 3 -31 -3 -36 -20 -3 -14 0 -17 13 -14 16 4 15 -1 -6 -44
-13 -26 -25 -59 -28 -73 -2 -14 -6 -32 -8 -40 -2 -9 5 -15 18 -16 12 0 26 -4
32 -8 6 -4 10 2 9 13 -1 14 -5 17 -13 10 -8 -6 -14 -6 -18 -1 -3 6 1 13 10 16
9 4 13 13 10 23 -7 22 8 50 18 34 4 -6 4 -16 1 -21 -4 -6 -2 -17 5 -25 8 -10
7 -22 -4 -50 -16 -38 -74 -97 -90 -92 -5 2 -21 -7 -35 -20 -14 -13 -34 -30
-43 -38 -10 -8 -20 -27 -24 -42 -3 -16 -20 -57 -36 -92 -16 -35 -27 -72 -25
-83 3 -10 2 -16 -3 -13 -13 8 -19 -22 -7 -34 9 -9 8 -11 -3 -6 -10 3 -19 -5
-28 -24 -7 -17 -22 -33 -32 -36 -10 -3 -17 -11 -14 -18 2 -7 -21 -37 -51 -66
-38 -37 -55 -61 -53 -75 2 -15 9 -20 26 -18 17 3 22 -2 24 -20 2 -37 3 -42 12
-57 7 -10 5 -12 -4 -6 -9 5 -10 2 -6 -12 7 -22 -26 -59 -42 -49 -6 3 -10 -40
-11 -111 -1 -65 2 -114 6 -109 4 4 8 12 8 18 0 6 19 16 41 23 l41 12 -13 -25
c-7 -13 -10 -31 -7 -38 3 -8 0 -14 -6 -14 -6 0 -11 -12 -11 -27 0 -24 -1 -25
-18 -11 -29 25 -42 30 -42 15 0 -7 12 -19 26 -25 28 -13 23 -37 -7 -29 -19 5
-19 -16 -19 -814 l0 -819 2000 0 2000 0 0 25 c0 14 -4 25 -10 25 -5 0 -10 6
-10 13 0 27 -68 93 -109 107 -42 13 -129 5 -221 -22 -39 -11 -69 -2 -216 67
l-82 38 -4 67 c-3 39 -12 77 -22 91 -9 13 -16 27 -16 30 0 4 22 10 50 14 27 4
52 11 56 16 3 5 16 9 30 9 24 0 25 -2 18 -47 -3 -27 -7 -50 -8 -53 0 -3 4 -7
9 -9 6 -2 14 19 18 45 5 27 12 52 16 57 13 13 51 16 51 4 0 -8 3 -8 8 -2 16
23 32 14 32 -17 0 -34 15 -29 22 7 3 19 48 32 48 14 0 -12 243 0 251 12 3 5
25 13 50 18 45 9 -36 8 -260 -4 -83 -5 -93 -4 -87 11 3 8 6 20 6 26 0 7 60 9
190 6 l190 -5 0 157 c0 155 0 158 -22 164 -45 12 -136 6 -152 -9 -10 -10 -35
-15 -76 -15 -59 0 -61 -1 -81 -35 -12 -19 -25 -35 -30 -35 -15 0 -36 43 -69
142 -30 92 -79 204 -79 183 -1 -10 19 -84 58 -225 21 -74 21 -75 2 -90 -18
-13 -44 -111 -69 -253 -4 -26 -7 -27 -66 -28 -33 0 -73 -3 -87 -5 -29 -5 -39
13 -39 68 0 15 -8 50 -19 77 -11 30 -15 54 -10 63 15 24 9 68 -16 118 -13 27
-30 52 -36 56 -8 5 -9 3 -4 -6 5 -9 4 -11 -3 -6 -7 4 -12 17 -12 29 0 12 -9
36 -20 52 -21 30 -43 75 -53 107 -3 9 1 19 9 22 9 3 13 10 9 15 -3 5 0 13 6
17 6 3 20 26 30 49 15 34 18 56 12 105 -3 34 -12 68 -20 76 -8 8 -11 14 -7 14
4 0 -1 9 -10 19 -10 11 -24 17 -32 14 -8 -3 -17 2 -20 11 -3 9 -11 13 -18 9
-6 -3 -8 -2 -3 2 4 5 -1 17 -10 28 -10 10 -16 20 -14 21 2 0 -3 24 -11 51 -9
28 -22 72 -29 98 -6 27 -19 51 -28 55 -18 6 -31 22 -31 36 0 6 6 2 13 -9 13
-17 14 -17 12 3 -1 12 -4 25 -8 28 -3 4 -2 14 3 24 5 10 6 21 2 25 -4 5 -2 5
4 2 16 -9 104 81 111 115 3 15 8 28 12 28 3 0 7 21 8 47 1 32 -1 42 -8 32 -5
-9 -9 -9 -9 -2 0 6 5 15 11 19 8 5 8 9 -1 14 -7 4 -13 16 -14 26 -5 47 -56
124 -78 117 -4 -2 -10 13 -14 32 -3 19 -10 35 -14 35 -5 0 -6 -10 -4 -22 3
-17 1 -15 -10 7 -9 17 -15 55 -14 90 1 51 2 53 5 15 2 -25 6 -52 10 -60 10
-24 22 62 12 88 -5 13 -9 41 -9 63 0 21 -4 39 -9 39 -5 0 -12 18 -16 40 -4 22
-13 47 -22 55 -8 8 -16 35 -17 59 -2 24 -6 48 -9 53 -3 5 -1 15 5 23 8 12 9
12 4 -2 -4 -13 0 -18 15 -18 17 0 20 4 15 24 -3 14 -2 27 3 30 4 3 4 26 -2 52
-10 42 -12 44 -20 22 -6 -12 -9 -32 -8 -43 l3 -20 -16 20 c-8 11 -16 37 -16
58 0 38 14 50 24 20 3 -10 3 3 1 30 -2 27 0 47 6 47 6 0 6 6 0 18 -6 10 -7 29
-4 42 5 19 3 22 -12 17 -13 -6 -16 -3 -11 9 3 8 6 30 6 47 1 34 6 31 36 -19
10 -17 12 -17 23 5 8 15 9 21 2 17 -6 -4 -11 0 -11 8 0 9 -5 16 -11 16 -5 0
-8 4 -4 9 3 6 -2 14 -12 19 -10 6 -18 25 -19 46 -2 20 -6 42 -10 48 -4 6 -8
23 -10 39 -3 27 -3 27 27 17 16 -6 32 -8 35 -6 2 3 -14 10 -37 17 -34 10 -43
19 -60 59 -79 185 -122 268 -138 264 -9 -2 -11 3 -8 13 4 9 1 15 -8 15 -8 0
-15 6 -15 13 0 19 -112 173 -144 198 -15 11 -24 25 -21 30 10 16 -17 10 -39
-8 -19 -16 -19 -16 -7 -1 11 15 8 24 -25 65 -39 49 -83 93 -93 93 -3 0 13 -18
34 -40 36 -36 37 -40 17 -40 -13 0 -25 7 -28 15 -4 8 -10 13 -15 10 -4 -3 -25
2 -46 11 -21 9 -45 18 -53 20 -8 2 -20 10 -26 18 -10 14 -75 16 -560 16 -538
-1 -550 -1 -574 -21z m860 -371 c30 -7 58 -13 63 -14 4 -1 13 -2 20 -3 8 0 29
-16 48 -34 19 -19 46 -37 61 -40 14 -4 45 -23 68 -42 23 -19 50 -35 61 -35 11
0 16 -5 13 -14 -3 -7 1 -16 9 -19 8 -3 18 -22 21 -41 4 -21 11 -34 17 -30 6 3
9 0 8 -7 -3 -19 9 -44 53 -115 21 -34 38 -66 38 -73 0 -6 5 -11 10 -11 6 0 10
-9 10 -19 0 -10 6 -21 14 -24 28 -11 75 -317 48 -317 -5 0 -54 10 -108 21 -55
12 -109 21 -120 20 -12 0 -27 6 -34 14 -14 17 -3 20 20 5 9 -5 17 -5 20 0 8
14 117 22 125 10 3 -5 12 -10 18 -10 7 0 -5 16 -25 35 -21 20 -40 34 -43 33
-4 -2 -11 5 -16 15 -6 9 -15 15 -21 11 -16 -10 -240 -13 -260 -3 -10 5 -27 14
-38 19 -24 12 -33 13 -26 2 2 -4 -14 -6 -36 -4 -27 3 -38 1 -34 -6 4 -7 -7
-14 -27 -17 -19 -4 -46 -18 -62 -31 -38 -32 -56 -30 -111 11 -25 19 -50 33
-55 29 -5 -3 -9 0 -9 5 0 6 -7 11 -15 11 -8 0 -15 4 -15 10 0 5 -6 7 -14 4 -8
-3 -33 8 -55 24 -27 20 -49 28 -62 25 -12 -4 -25 0 -30 8 -5 9 -9 9 -9 2 0
-12 -110 -14 -110 -2 0 4 -39 10 -86 14 -80 6 -85 8 -82 28 2 12 9 22 16 22 7
0 16 5 20 12 14 23 82 62 98 56 10 -4 15 -1 13 8 -1 8 2 23 6 33 8 19 9 19 15
1 6 -17 7 -17 12 3 4 12 2 20 -2 17 -5 -3 -11 -1 -15 4 -5 9 28 51 40 51 9 0
45 34 45 42 0 5 -11 6 -25 2 -15 -4 -25 -2 -25 5 0 6 5 11 11 11 5 0 15 13 20
29 11 31 45 47 66 29 7 -6 13 -9 14 -7 7 33 3 52 -15 65 -11 8 -15 14 -8 14 6
0 12 7 12 15 0 8 7 15 15 15 9 0 27 11 41 25 14 14 39 28 55 32 16 3 29 9 29
14 0 5 5 9 11 9 5 0 7 -4 4 -10 -3 -5 1 -10 9 -10 9 0 16 5 16 10 0 6 9 10 19
10 11 0 27 10 35 22 11 16 26 22 51 22 19 0 35 2 35 6 0 10 86 9 140 -2z m776
-100 c41 -62 66 -109 60 -115 -7 -8 -45 38 -46 55 0 6 -4 12 -8 12 -4 0 -15
20 -24 45 -10 25 -16 45 -14 45 2 0 16 -19 32 -42z m74 -143 c0 -8 -2 -15 -4
-15 -2 0 -6 7 -10 15 -3 8 -1 15 4 15 6 0 10 -7 10 -15z m-50 -40 c11 -13 10
-14 -4 -9 -9 3 -16 10 -16 15 0 13 6 11 20 -6z m80 -43 c0 -10 6 -26 13 -37
17 -26 21 -73 4 -56 -6 6 -19 11 -29 11 -20 0 -24 15 -6 26 7 5 8 3 3 -6 -5
-9 -4 -11 3 -6 22 14 13 36 -15 37 -16 0 -37 4 -48 9 l-20 9 20 0 c16 1 17 3
5 11 -13 8 -13 10 0 14 51 17 70 14 70 -12z m-33 -344 c-3 -8 -6 -5 -6 6 -1
11 2 17 5 13 3 -3 4 -12 1 -19z m-1911 -166 c-18 -16 -18 -16 -6 6 6 13 14 21
18 18 3 -4 -2 -14 -12 -24z m1484 -28 c116 -27 127 -33 122 -66 -5 -31 -35
-50 -79 -50 -13 0 -23 -4 -23 -8 0 -13 -84 10 -96 25 -6 8 -16 15 -23 15 -6 0
-11 4 -11 9 0 5 -13 14 -28 20 -36 15 -38 41 -3 42 26 0 26 0 4 9 -13 5 -23
12 -23 15 0 10 97 4 160 -11z m-1505 -107 c1 -61 -2 -98 -6 -82 -12 53 -8 195
5 195 0 0 1 -51 1 -113z m1860 23 c-4 -23 -9 -39 -12 -36 -3 2 -2 23 2 46 4
23 9 39 12 36 3 -2 2 -23 -2 -46z m-185 15 c13 -14 21 -25 18 -25 -2 0 -15 11
-28 25 -13 14 -21 25 -18 25 2 0 15 -11 28 -25z m-2135 -25 c-10 -11 -21 -17
-24 -14 -3 3 3 12 13 20 28 20 32 17 11 -6z m1401 -15 c3 -13 4 -29 2 -36 -6
-17 -38 18 -38 42 0 28 29 23 36 -6z m779 -45 c5 -16 4 -22 -3 -15 -5 6 -12
24 -16 40 -7 34 7 15 19 -25z m-2236 14 c6 4 11 4 11 -1 0 -4 -14 -16 -30 -25
-18 -10 -30 -13 -30 -6 0 7 -5 6 -15 -2 -8 -7 -15 -9 -15 -4 0 5 12 19 27 31
18 16 29 20 34 12 4 -6 12 -8 18 -5z m1561 2 c0 -8 -6 -17 -12 -19 -8 -4 -4
-8 10 -12 12 -4 22 -14 22 -21 0 -18 60 -56 78 -49 7 2 12 -3 12 -14 0 -21 54
-47 115 -56 37 -6 39 -5 21 9 -19 15 -17 16 31 16 48 0 50 1 45 25 -4 21 -1
24 14 19 11 -4 16 -4 12 1 -4 4 -1 13 6 20 13 13 33 18 119 30 21 3 46 9 56
14 38 21 42 1 40 -163 l-2 -157 -35 -31 c-20 -17 -50 -37 -68 -44 -43 -18
-178 -19 -196 -1 -7 8 -28 17 -47 20 -19 4 -39 14 -45 23 -6 8 -18 16 -26 17
-19 3 -80 64 -72 72 4 3 -1 3 -11 -1 -9 -3 -17 -10 -17 -15 0 -20 73 -79 122
-98 29 -11 48 -20 41 -20 -24 -1 -118 40 -143 62 -77 68 -114 183 -103 316 4
50 10 71 19 71 8 0 14 -6 14 -14z m364 -13 c8 -20 0 -28 -36 -37 -31 -7 -32
-7 -18 28 11 30 44 35 54 9z m291 -138 c-8 -22 -13 -29 -10 -15 3 14 9 45 13
70 6 38 7 41 10 15 1 -16 -4 -48 -13 -70z m-789 48 c36 -38 54 -77 74 -153 13
-51 26 -74 58 -106 34 -33 42 -49 42 -77 0 -46 -34 -75 -60 -52 -21 19 -70 19
-96 1 -18 -14 -18 -15 6 -20 78 -18 109 -21 142 -16 46 8 101 -10 131 -42 17
-19 22 -36 22 -78 0 -48 -3 -55 -19 -55 -11 0 -21 -6 -24 -13 -10 -30 -41 -33
-124 -11 -116 29 -115 29 -198 30 -41 1 -87 6 -102 12 -33 14 -37 43 -7 52 12
4 18 12 15 21 -3 9 1 14 14 14 14 0 18 -5 13 -16 -4 -12 0 -15 18 -12 20 2 24
-1 22 -19 -4 -35 24 -28 32 8 4 17 3 34 -2 38 -11 7 -12 51 -1 51 4 0 8 5 8
10 0 6 -12 11 -27 11 -16 1 -21 3 -12 6 18 4 15 43 -3 43 -5 0 -7 4 -4 9 8 13
-13 27 -74 50 -45 17 -63 19 -90 11 -46 -13 -70 6 -43 36 10 10 27 20 38 22
59 8 62 11 67 57 4 31 15 55 37 80 17 20 31 40 31 44 0 5 12 28 27 50 31 48
54 52 89 14z m-814 -164 c37 -39 50 -47 69 -41 19 5 20 7 7 10 -12 2 -18 13
-18 33 0 18 4 28 10 24 6 -3 10 -1 10 5 0 7 6 10 14 7 8 -3 22 2 32 12 47 42
92 47 202 23 52 -11 113 3 119 29 5 19 42 38 61 32 21 -8 15 -77 -9 -99 -12
-10 -22 -17 -24 -14 -2 3 -19 -8 -38 -24 -20 -17 -34 -34 -31 -38 3 -4 -2 -8
-10 -8 -9 0 -16 -5 -16 -11 0 -7 -10 -9 -27 -5 -18 4 -23 3 -15 -2 19 -13 -6
-22 -33 -12 -11 4 -32 5 -48 3 -22 -5 -33 2 -62 33 -24 26 -35 33 -35 21 0
-16 -23 -26 -67 -30 -12 0 -19 -5 -17 -9 3 -5 10 -6 15 -3 5 4 9 1 9 -5 0 -6
3 -9 8 -7 4 3 13 -2 21 -10 12 -13 11 -14 -9 -8 -114 36 -186 121 -205 241 -4
27 2 18 18 -30 17 -50 37 -83 69 -117z m55 64 c-8 -7 -37 22 -37 36 0 6 5 11
10 11 6 0 10 8 11 18 1 9 6 0 11 -21 6 -21 8 -41 5 -44z m351 63 c-10 -7 -18
-18 -18 -24 0 -6 -4 -14 -10 -17 -6 -4 -10 7 -10 24 0 27 3 31 28 31 24 -1 25
-2 10 -14z m161 -74 c-44 -89 -149 -164 -226 -161 -20 1 -22 3 -8 6 58 12 114
39 148 71 20 20 37 40 37 45 0 9 63 87 67 83 1 -1 -7 -21 -18 -44z m997 -54
c-14 -31 -30 -59 -37 -63 -6 -4 -10 -4 -7 1 2 5 17 38 33 73 16 35 31 59 32
54 2 -5 -8 -35 -21 -65z m-1652 -76 c3 -5 -1 -9 -9 -9 -8 0 -15 4 -15 9 0 4 4
8 9 8 6 0 12 -4 15 -8z m269 -29 c-7 -2 -19 -2 -25 0 -7 3 -2 5 12 5 14 0 19
-2 13 -5z m1336 -108 c-9 -71 -30 -150 -50 -187 -7 -13 -12 -26 -11 -30 1 -5
-4 -8 -11 -8 -12 0 -41 -37 -42 -52 0 -8 -12 -9 -32 -1 -7 3 -10 9 -7 14 3 5
1 9 -5 9 -5 0 -12 -13 -16 -30 -4 -16 -11 -32 -16 -35 -5 -4 -9 -14 -9 -25 0
-10 -7 -20 -15 -24 -8 -3 -12 -12 -9 -21 5 -11 2 -14 -10 -9 -10 4 -16 1 -16
-9 0 -9 -14 -26 -31 -38 -26 -18 -33 -19 -40 -8 -6 10 -9 8 -9 -10 0 -13 -3
-22 -6 -18 -3 3 -25 -15 -48 -41 -108 -123 -171 -182 -200 -190 -35 -10 -106
-4 -106 8 0 5 -20 16 -45 26 -33 12 -45 22 -45 37 0 11 -3 17 -7 13 -4 -4 -8
-15 -8 -23 0 -25 -26 -28 -32 -5 -3 12 -12 23 -22 25 -9 3 -3 5 12 6 26 1 28
3 21 36 -5 30 -4 34 10 29 9 -3 16 -2 16 4 0 5 26 9 58 8 44 -1 56 2 54 13 -2
9 4 12 18 8 15 -4 20 -1 18 11 -2 10 -6 20 -10 23 -5 3 -9 21 -11 40 -2 32 -5
34 -47 39 -25 3 -50 9 -57 13 -6 4 -13 3 -15 -1 -1 -5 -18 -3 -37 5 l-34 14
24 17 c13 9 38 15 57 13 18 -1 40 3 49 10 8 8 31 14 49 15 18 1 59 10 90 19
32 9 76 18 98 20 37 3 44 0 69 -32 15 -20 27 -47 27 -60 0 -12 5 -23 11 -23 5
0 8 -4 5 -9 -3 -4 4 -17 16 -27 18 -16 21 -17 15 -2 -3 9 -1 18 4 20 13 4 42
209 32 217 -5 3 -17 23 -27 43 -10 21 -23 35 -29 31 -6 -3 -7 -1 -3 5 5 9 13
9 27 2 20 -11 26 -1 9 16 -13 13 -2 46 13 37 6 -4 8 2 4 17 -4 17 -3 20 6 11
12 -12 28 -15 25 -3 -5 24 17 42 51 42 51 0 140 23 187 47 21 11 42 21 45 22
3 0 2 -28 -2 -64z m-2438 13 c-4 -12 -14 -24 -20 -26 -8 -3 -7 5 4 22 21 32
27 33 16 4z m2946 -30 c-3 -7 -5 -2 -5 12 0 14 2 19 5 13 2 -7 2 -19 0 -25z
m10 -70 c-3 -7 -5 -2 -5 12 0 14 2 19 5 13 2 -7 2 -19 0 -25z m-2700 -10 c-3
-8 -6 -5 -6 6 -1 11 2 17 5 13 3 -3 4 -12 1 -19z m2744 -151 c-10 -9 -11 -8
-5 6 3 10 9 15 12 12 3 -3 0 -11 -7 -18z m9 -27 c-6 -11 -13 -20 -16 -20 -2 0
0 9 6 20 6 11 13 20 16 20 2 0 0 -9 -6 -20z m-2873 -16 c-3 -3 -12 -4 -19 -1
-8 3 -5 6 6 6 11 1 17 -2 13 -5z m2163 -4 c0 -5 -4 -10 -8 -10 -5 0 -14 -10
-21 -22 -7 -14 -9 -16 -6 -5 3 10 5 25 5 33 0 8 7 14 15 14 8 0 15 -4 15 -10z
m680 -14 c0 -2 -8 -10 -17 -17 -16 -13 -17 -12 -4 4 13 16 21 21 21 13z
m-2876 -62 c26 -10 18 -21 -15 -22 -25 -1 -28 2 -18 14 13 16 12 16 33 8z
m-10 -78 c-3 -9 -10 -16 -15 -16 -6 0 -5 9 1 21 13 24 24 20 14 -5z m-51 -1
c-3 -9 -8 -14 -10 -11 -3 3 -2 9 2 15 9 16 15 13 8 -4z m2789 -45 c-6 -43 -12
-37 -12 13 0 25 4 37 8 29 5 -7 7 -26 4 -42z m54 -16 c-4 -14 -11 -22 -16 -19
-14 9 -12 63 3 68 15 5 21 -17 13 -49z m-1925 -47 c-10 -9 -11 -8 -5 6 3 10 9
15 12 12 3 -3 0 -11 -7 -18z m1909 -109 c0 -4 7 -8 15 -8 14 0 33 -46 22 -56
-12 -12 -59 47 -62 78 -4 31 -3 32 10 14 8 -11 15 -23 15 -28z m158 -119 c-3
-8 -7 -3 -11 10 -4 17 -3 21 5 13 5 -5 8 -16 6 -23z m71 -59 c8 -34 6 -58 -6
-100 -19 -69 -30 -84 -48 -67 -8 8 -10 20 -4 37 22 71 25 112 15 180 l-7 45
20 -25 c11 -14 25 -45 30 -70z m-71 -6 c-1 -19 -5 -37 -10 -40 -9 -6 -9 -6
-13 54 -2 34 0 40 11 31 7 -6 13 -26 12 -45z m-41 14 c-3 -8 -6 -5 -6 6 -1 11
2 17 5 13 3 -3 4 -12 1 -19z m-19 -244 c-4 -3 -12 5 -18 18 -12 22 -12 22 6 6
10 -10 15 -20 12 -24z m-1863 -94 c3 -6 -1 -7 -9 -4 -18 7 -21 14 -7 14 6 0
13 -4 16 -10z m15 -40 c0 -5 -7 -7 -15 -4 -8 4 -15 8 -15 10 0 2 7 4 15 4 8 0
15 -4 15 -10z m14 -36 c24 -23 19 -27 -9 -8 -14 9 -25 18 -25 20 0 10 20 3 34
-12z m26 -50 c0 -16 -26 -8 -33 11 -4 9 1 11 14 8 10 -3 19 -11 19 -19z m2024
0 c3 -8 2 -12 -4 -9 -6 3 -10 10 -10 16 0 14 7 11 14 -7z m-1999 -35 c11 -17
0 -20 -21 -4 -17 13 -17 14 -2 15 9 0 20 -5 23 -11z m1904 -53 c-3 -3 -11 5
-18 17 -13 21 -12 21 5 5 10 -10 16 -20 13 -22z m469 -33 c9 -34 12 -69 8 -98
l-7 -45 -44 0 -44 0 5 33 c3 17 12 63 21 100 19 84 39 87 61 10z m-2378 37 c0
-5 -2 -10 -4 -10 -3 0 -8 5 -11 10 -3 6 -1 10 4 10 6 0 11 -4 11 -10z m72 -37
c23 -20 23 -30 1 -30 -17 0 -42 23 -43 40 0 13 23 8 42 -10z m76 -79 c8 -9 8
-10 0 -4 -17 14 -31 12 -22 -2 4 -7 -2 -5 -13 5 -11 9 -25 17 -31 17 -6 0 -13
4 -17 9 -8 15 68 -9 83 -25z m2279 -10 c-3 -3 -12 -4 -19 -1 -8 3 -5 6 6 6 11
1 17 -2 13 -5z m-2112 -35 c-3 -4 -21 -7 -41 -7 -24 0 -32 3 -24 8 17 10 71
10 65 -1z m2228 -8 c8 -8 -10 -11 -66 -11 -65 0 -77 3 -77 16 0 14 9 16 66 11
36 -2 71 -10 77 -16z m-163 -30 c0 -31 -14 -41 -56 -41 -36 0 -44 3 -44 18 0
10 3 22 7 25 10 11 93 8 93 -2z m-630 -155 c0 -6 -9 0 -20 14 -26 33 -25 52 0
21 11 -13 20 -28 20 -35z m100 -100 c0 -3 -4 -8 -10 -11 -5 -3 -10 -1 -10 4 0
6 5 11 10 11 6 0 10 -2 10 -4z m44 -18 c-3 -5 -12 -4 -20 3 -19 16 -18 18 6
12 11 -3 17 -9 14 -15z m-36 -133 c-3 -3 -9 2 -12 12 -6 14 -5 15 5 6 7 -7 10
-15 7 -18z"/>
<path d="M1528 3413 c6 -2 18 -2 25 0 6 3 1 5 -13 5 -14 0 -19 -2 -12 -5z"/>
<path d="M1431 3344 c0 -11 3 -14 6 -6 3 7 2 16 -1 19 -3 4 -6 -2 -5 -13z"/>
<path d="M2292 2705 c20 -13 38 -30 41 -37 4 -9 6 -9 6 -1 1 13 -55 63 -72 63
-6 0 5 -11 25 -25z"/>
<path d="M1440 2386 c7 -7 14 -6 21 1 9 9 7 12 -9 10 -14 -1 -18 -5 -12 -11z"/>
<path d="M1250 2291 c0 -5 7 -11 14 -14 10 -4 13 -1 9 9 -6 15 -23 19 -23 5z"/>
<path d="M2995 3209 c39 -15 43 -18 18 -14 -49 7 -40 -2 20 -19 28 -9 104 -31
167 -49 63 -19 144 -42 179 -53 34 -10 65 -23 68 -29 2 -7 -3 -158 -12 -336
-8 -178 -17 -396 -19 -484 l-5 -160 13 165 13 165 -3 -220 c-3 -217 -3 -218 6
-70 5 83 14 274 20 425 6 151 14 337 17 412 5 113 4 138 -8 142 -8 2 -43 12
-79 21 -67 18 -247 71 -361 105 -82 25 -100 25 -34 -1z m80 -29 c3 -6 -1 -7
-9 -4 -18 7 -21 14 -7 14 6 0 13 -4 16 -10z"/>
<path d="M3065 3080 c2 -32 21 -44 19 -13 0 15 -5 28 -11 30 -5 2 -9 -6 -8
-17z"/>
<path d="M3355 3050 c3 -5 8 -10 11 -10 2 0 4 5 4 10 0 6 -5 10 -11 10 -5 0
-7 -4 -4 -10z"/>
<path d="M3395 3040 c28 -12 37 -12 30 0 -3 6 -16 10 -28 9 -21 0 -21 -1 -2
-9z"/>
<path d="M2953 2978 c3 -18 9 -41 13 -52 6 -15 4 -17 -13 -12 -17 6 -20 3 -15
-19 2 -14 10 -25 17 -25 7 0 16 -10 20 -22 6 -21 8 -20 15 12 5 19 5 41 0 50
-4 8 -8 18 -9 23 0 4 -3 23 -7 42 -8 45 -29 47 -21 3z"/>
<path d="M3230 3001 c0 -5 5 -13 10 -16 6 -3 10 -2 10 4 0 5 -4 13 -10 16 -5
3 -10 2 -10 -4z"/>
<path d="M3423 2935 c0 -38 2 -53 4 -32 2 20 2 52 0 70 -2 17 -4 1 -4 -38z"/>
<path d="M2930 2834 c0 -3 5 -14 11 -25 6 -11 12 -30 14 -41 6 -29 12 -33 48
-33 23 0 35 -6 44 -25 10 -19 13 -21 13 -7 0 10 -5 23 -10 30 -6 7 -18 23 -29
37 -17 22 -21 23 -37 10 -16 -12 -17 -12 -6 0 17 20 15 35 -3 20 -8 -7 -16
-10 -16 -6 -1 3 -3 11 -4 16 -1 6 -3 15 -4 20 -1 10 -21 14 -21 4z"/>
<path d="M395 2739 c-11 -16 -1 -19 13 -3 7 8 8 14 3 14 -5 0 -13 -5 -16 -11z"/>
<path d="M3000 2646 c0 -24 4 -35 13 -33 6 1 12 -5 12 -13 0 -8 -7 -15 -15
-15 -21 0 -24 -29 -4 -46 15 -12 16 -12 10 6 -4 14 0 25 14 35 25 18 25 32 0
55 -11 10 -17 21 -15 26 3 4 1 10 -5 14 -6 4 -10 -8 -10 -29z"/>
<path d="M3058 2655 c2 -14 6 -25 8 -25 2 0 4 11 4 25 0 14 -4 25 -9 25 -4 0
-6 -11 -3 -25z"/>
<path d="M3290 2630 c0 -5 5 -10 11 -10 5 0 7 5 4 10 -3 6 -8 10 -11 10 -2 0
-4 -4 -4 -10z"/>
<path d="M3340 2599 c0 -24 23 -21 28 4 2 10 -3 17 -12 17 -10 0 -16 -9 -16
-21z"/>
<path d="M2950 2547 c0 -20 5 -39 11 -42 7 -5 8 5 3 32 -9 51 -14 54 -14 10z"/>
<path d="M3115 2515 c-22 -18 -43 -31 -47 -28 -5 2 -8 -3 -8 -11 0 -10 -6 -13
-15 -10 -17 7 -31 -19 -20 -37 6 -8 11 -6 18 7 10 17 11 17 18 -1 6 -17 8 -17
8 -3 1 11 6 15 15 12 17 -6 29 -63 17 -78 -16 -21 -19 -55 -5 -67 11 -9 14 -8
14 4 0 9 8 24 19 34 22 21 33 80 19 107 -7 13 -6 31 2 57 8 22 11 41 9 43 -3
3 -22 -10 -44 -29z"/>
<path d="M3263 2513 c-12 -34 2 -83 24 -83 11 0 13 6 8 23 -4 12 -8 37 -9 55
-1 39 -11 41 -23 5z"/>
<path d="M3320 2300 c0 -5 5 -10 10 -10 6 0 10 5 10 10 0 6 -4 10 -10 10 -5 0
-10 -4 -10 -10z"/>
<path d="M3121 2251 c-9 -16 -8 -18 9 -14 11 3 20 12 20 19 0 20 -18 17 -29
-5z"/>
<path d="M2991 2255 c1 -19 18 -51 18 -35 0 8 -4 22 -9 30 -5 8 -9 11 -9 5z"/>
<path d="M3130 2180 c0 -5 5 -10 10 -10 6 0 10 5 10 10 0 6 -4 10 -10 10 -5 0
-10 -4 -10 -10z"/>
<path d="M3157 2143 c-5 -26 5 -42 26 -43 8 0 -2 51 -13 63 -4 5 -10 -4 -13
-20z"/>
<path d="M3070 1434 c8 -8 23 -20 34 -26 19 -10 18 -8 -3 16 -26 27 -53 37
-31 10z"/>
<path d="M3592 360 c0 -19 2 -27 5 -17 2 9 2 25 0 35 -3 9 -5 1 -5 -18z"/>
</g>
</svg>
